<?xml version="1.0" encoding="UTF-8"?>
<svg version="1.1" xmlns="http://www.w3.org/2000/svg" width="938" height="938">
<path d="M0 0 C0.99 0.33 1.98 0.66 3 1 C3.88671875 2.86328125 3.88671875 2.86328125 4.6875 5.3125 C8.00257331 14.14013841 13.75707926 21.42307694 19.5 28.8125 C24.55340496 35.43026336 28.28091093 42.58208938 32 50 C32.77859375 49.63648438 33.5571875 49.27296875 34.359375 48.8984375 C41.56725483 45.65987398 48.81875057 42.94578787 56.375 40.625 C57.20612305 40.36251465 58.03724609 40.1000293 58.89355469 39.82958984 C64.11377149 38.27354361 68.55494401 37.73713523 74 38 C74 38.66 74 39.32 74 40 C72.57421875 41.26171875 72.57421875 41.26171875 70.6875 42.6875 C65.6010313 46.90053468 64.10169505 51.55319893 63 58 C62.85917098 59.83747541 62.75560602 61.67807451 62.68359375 63.51953125 C62.64169922 64.54111328 62.59980469 65.56269531 62.55664062 66.61523438 C62.51732422 67.67033203 62.47800781 68.72542969 62.4375 69.8125 C62.37272461 71.42415039 62.37272461 71.42415039 62.30664062 73.06835938 C62.20089017 75.71212082 62.09879767 78.3559711 62 81 C62.90878906 80.7834375 63.81757812 80.566875 64.75390625 80.34375 C74.02968871 78.28880742 82.49708439 77.63605855 92 78 C92 78.66 92 79.32 92 80 C90.83034207 81.04497358 89.61231908 82.036096 88.375 83 C80.36148417 89.87475306 76.48832531 99.88475775 71.90234375 109.19140625 C69.74671746 113.54467253 67.41394334 117.78543422 65 122 C65.58628174 122.114646 66.17256348 122.22929199 66.77661133 122.34741211 C74.44263604 123.86169786 82.0700519 125.53473576 89.69726562 127.23242188 C103.26411218 130.21622667 116.44812026 132.45821699 129.0625 125.25 C131.62883692 122.26973777 131.77726394 119.86075831 132 116 C131.34 115.54625 130.68 115.0925 130 114.625 C129.34 114.08875 128.68 113.5525 128 113 C128 112.34 128 111.68 128 111 C132.77247406 110.53211039 135.95087582 110.31485768 140.0625 113 C142.55243949 116.85539017 142.93661745 119.5351537 142 124 C139.19137631 129.48958267 133.5157404 131.79030431 128 134 C109.08057951 138.37278354 88.09610811 134.16852988 70.21606445 127.55371094 C64.20219773 125.22382183 64.20219773 125.22382183 58.01171875 125.953125 C55.50315875 127.4842757 53.27451789 129.14424025 51 131 C45.32477473 133.71423817 39.17399658 133.56665448 33 133 C29.49563918 131.67075969 27.6165916 130.6165916 25 128 C24.5625 125.625 24.5625 125.625 25 123 C29.28120275 118.45933041 33.99860797 117.15123293 40.0234375 116.84765625 C46.42790367 116.78047653 52.65620286 117.13982412 59 118 C63.60280591 110.9892447 68.07548387 103.97196492 72.125 96.625 C75.45784886 90.68731936 79.20223659 85.79776341 84 81 C81.27070664 81.47845385 78.54156349 81.95773823 75.8125 82.4375 C75.04357422 82.57220703 74.27464844 82.70691406 73.48242188 82.84570312 C69.64534426 83.52089704 65.81600432 84.21232777 62 85 C61.84144531 85.64066406 61.68289063 86.28132813 61.51953125 86.94140625 C59.55868093 94.21063588 57.71883099 99.56662552 51.25390625 103.796875 C42.53583534 108.54229187 42.53583534 108.54229187 37.875 108.0625 C35 107 35 107 33 104 C32.58198434 99.68050483 32.39980493 97.17310855 34.375 93.3125 C39.33970384 88.93883233 45.3117093 86.5047581 51.5625 84.5 C52.696875 84.005 53.83125 83.51 55 83 C56.01260853 79.66845703 56.18399315 76.29680473 56.39453125 72.83203125 C56.49797852 71.36733398 56.49797852 71.36733398 56.60351562 69.87304688 C56.74145849 67.85289293 56.86927477 65.83201879 56.98632812 63.81054688 C57.55640733 56.11700012 59.5625972 49.87480559 63 43 C59.68492362 44.07555207 56.37347264 45.16188693 53.0625 46.25 C52.13630859 46.55035156 51.21011719 46.85070312 50.25585938 47.16015625 C44.33200753 49.11398809 38.64485797 51.34462252 33 54 C33.03480469 54.68964844 33.06960938 55.37929688 33.10546875 56.08984375 C33.33548332 64.07463518 32.51235693 70.88299581 27.75 77.5 C24.41183096 80.53469913 22.4712961 81 18 81 C15 79 15 79 14 76 C13.36869941 71.94848859 13.21895095 68.45015621 15.19921875 64.7734375 C17.4204918 61.78562942 19.54991144 59.34881864 22.5 57.0625 C24.1762333 55.18020754 24.1762333 55.18020754 24.0078125 53.18359375 C21.69949123 40.01674078 12.6491565 28.64228598 5.23339844 17.91601562 C3.21342022 14.77809222 2 12.79128716 2 9 C1.34 9 0.68 9 0 9 C-0.36351562 10.25876953 -0.36351562 10.25876953 -0.734375 11.54296875 C-2.17148622 15.46841144 -4.06262504 18.76911566 -6.25 22.3125 C-6.65186523 22.97548096 -7.05373047 23.63846191 -7.46777344 24.3215332 C-9.6253165 27.85712268 -11.8666112 31.29861905 -14.25 34.6875 C-17.8726424 40.03521021 -22.19130825 46.94549933 -21.87890625 53.56640625 C-20.77970415 56.60997473 -19.22405599 58.34826968 -17 60.6875 C-13.48819684 64.41879086 -11.85542895 66.20635493 -11.8125 71.375 C-11.79832031 72.14585937 -11.78414062 72.91671875 -11.76953125 73.7109375 C-12.02791533 76.27726069 -12.58464084 77.8484641 -14 80 C-17.34653277 81.11551092 -19.23712229 81.2791016 -22.5625 80.0625 C-26.68447761 76.57467279 -29.3001258 72.09962261 -31 67 C-31.09308544 65.33541327 -31.12996185 63.66718003 -31.125 62 C-31.12886719 60.700625 -31.12886719 60.700625 -31.1328125 59.375 C-31 57 -31 57 -30 54 C-31.31484375 53.57847656 -31.31484375 53.57847656 -32.65625 53.1484375 C-35.6898214 52.1065333 -38.56728812 50.91835889 -41.5 49.625 C-48.19073276 46.79236565 -54.98648209 44.85712974 -62 43 C-61.38125 43.845625 -60.7625 44.69125 -60.125 45.5625 C-55.18561592 53.12422817 -55.41529696 61.66431745 -54.875 70.4375 C-54.78863281 71.74138672 -54.70226562 73.04527344 -54.61328125 74.38867188 C-54.40206819 77.59206992 -54.19785972 80.79575409 -54 84 C-53.4119458 84.11827148 -52.8238916 84.23654297 -52.21801758 84.35839844 C-44.60177595 85.95755201 -37.75958533 87.97759702 -32.375 93.875 C-30.73056567 97.61235076 -30.40148332 99.96001243 -31 104 C-32.4375 106.5 -32.4375 106.5 -35 108 C-41.67149264 108.64224585 -46.9114073 106.09759762 -52 102 C-55.73743362 98.42867454 -57.1542999 95.73956975 -58.25 90.8125 C-59.17925967 87.25822437 -59.17925967 87.25822437 -61.69140625 84.76171875 C-64.13489478 83.88422287 -66.43285365 83.40776496 -69 83 C-70.22203125 82.80019531 -71.4440625 82.60039062 -72.703125 82.39453125 C-76.13108304 81.87756187 -79.5585326 81.41610914 -83 81 C-82.24074219 81.57492187 -81.48148437 82.14984375 -80.69921875 82.7421875 C-73.32679999 88.9089864 -69.08004834 98.20735302 -64.63989258 106.57861328 C-62.15456171 111.19831041 -59.50104328 115.08780218 -56 119 C-54.453125 118.505 -54.453125 118.505 -52.875 118 C-43.91969241 115.78507517 -34.28416642 115.77976428 -26 120 C-23.82539966 121.88566743 -23.08867982 122.56768587 -22.5 125.4375 C-23 128 -23 128 -25.3125 130.25 C-30.85419436 133.85854516 -36.58452782 133.5711335 -43 133 C-47.94252185 131.65267413 -52.05591406 129.67320414 -56.2265625 126.69921875 C-58.42977098 125.43254413 -59.5646878 124.96030282 -62.11499023 125.19287109 C-64.49482023 125.85750596 -66.75921882 126.66821057 -69.0625 127.5625 C-70.74433753 128.15604169 -72.42795727 128.74455642 -74.11328125 129.328125 C-74.93908691 129.61880859 -75.76489258 129.90949219 -76.61572266 130.20898438 C-87.67352107 133.87755563 -99.22130891 135.18678969 -110.8125 135.25 C-111.74642578 135.270625 -112.68035156 135.29125 -113.64257812 135.3125 C-122.95970393 135.36422589 -130.7508231 133.84923888 -137.72265625 127.40234375 C-140.53526046 124.31449998 -140.40297733 121.20444748 -140.33203125 117.19921875 C-140 115 -140 115 -138.0625 112.4375 C-133.94914438 110.50674124 -130.46641443 110.64969299 -126 111 C-126 111.66 -126 112.32 -126 113 C-127.98 113.99 -127.98 113.99 -130 115 C-130.11320856 120.08303686 -130.11320856 120.08303686 -129 125 C-126.6569191 126.12085312 -126.6569191 126.12085312 -124 127 C-123.38125 127.350625 -122.7625 127.70125 -122.125 128.0625 C-107.47674684 134.52496463 -86.60480362 127.67639898 -72.10571289 123.6262207 C-68.98437668 122.75642743 -66.25793577 122 -63 122 C-63.56847656 121.01644531 -64.13695312 120.03289062 -64.72265625 119.01953125 C-67.04578864 114.952772 -69.25111365 110.82899329 -71.4375 106.6875 C-71.83437012 105.94129395 -72.23124023 105.19508789 -72.64013672 104.42626953 C-74.74479107 100.45234413 -76.73732416 96.45764774 -78.625 92.375 C-81.12144414 87.28642919 -84.84922717 82.57538642 -90 80 C-90 79.34 -90 78.68 -90 78 C-79.78739713 77.64603302 -70.89369653 78.15386812 -61 81 C-59.7554457 60.68274595 -59.7554457 60.68274595 -68 43 C-70.14176007 41.11696038 -70.14176007 41.11696038 -72 40 C-71.67 39.01 -71.34 38.02 -71 37 C-56.43023835 40.10119425 -42.28463117 44.16374819 -29 51 C-28.90332031 50.30519531 -28.80664062 49.61039062 -28.70703125 48.89453125 C-26.25003613 38.83578327 -18.53050783 29.88507445 -12.3059082 21.84936523 C-8.00320322 16.21140929 -4.87557104 10.49589429 -2 4 C-1.340521 2.66309699 -0.67657962 1.32833062 0 0 Z M-24 59 C-24.33 59.33 -24.66 59.66 -25 60 C-24.9527968 66.16001756 -24.02574032 71.62090609 -21 77 C-18.9648239 78.4818964 -18.9648239 78.4818964 -17 79 C-14.52379492 75.28569238 -14.21942649 72.30498117 -15 68 C-16.77432992 64.36651163 -18.87314535 61.70047722 -22.3125 59.5625 C-22.869375 59.376875 -23.42625 59.19125 -24 59 Z M22.2734375 60.65234375 C18.89097768 64.72382316 16.51926888 67.61537852 16.5625 73.0625 C16.706875 74.361875 16.85125 75.66125 17 77 C18.98 77.99 18.98 77.99 21 79 C24.57694505 73.80766042 26.13661381 70.61217345 26.0625 64.3125 C26.05347656 63.31863281 26.04445313 62.32476562 26.03515625 61.30078125 C26.02355469 60.54152344 26.01195312 59.78226562 26 59 C23.84251748 58.76953061 23.84251748 58.76953061 22.2734375 60.65234375 Z M-53 87 C-52.01000611 93.60384157 -48.33617452 99.61095961 -42.9375 103.625 C-39.67261315 105.15324491 -38.35096654 105.18269407 -35 104 C-34.15335357 100.69038215 -33.77520349 98.62943024 -34.9375 95.375 C-39.59189266 90.01539633 -46.27746571 88.44054306 -53 87 Z M38.875 93.3125 C36.54481509 96.6524317 36 98.93983969 36 103 C37.42969094 104.71163269 37.42969094 104.71163269 39 106 C47.15436844 102.56019197 51.47835962 98.34072722 55 90 C55 89.01 55 88.02 55 87 C49.34936849 87 43.30660312 90.03311369 38.875 93.3125 Z M-53 122 C-48.81088576 126.55874197 -45.0434101 129.07374475 -39.125 130.875 C-34.96481018 131.04140759 -31.54313185 130.24088291 -28 128 C-26.86559222 125.42919865 -26.86559222 125.42919865 -27 123 C-35.01571175 116.85462099 -44.14735675 119.02106872 -53 122 Z M29.25 122.578125 C28.8375 123.04734375 28.425 123.5165625 28 124 C29.59287098 127.78306858 30.69664549 128.86457388 34.5 130.5625 C40.1203931 131.66372305 45.04816946 129.56102486 50 127 C52.03175466 125.44553253 53.38422933 124.00578428 55 122 C48.12725296 118.09102499 35.52451126 116.91986038 29.25 122.578125 Z " fill="#BC8D58" transform="translate(468,328)"/>
<path d="M0 0 C6.27 0 12.54 0 19 0 C17 2 17 2 14 3 C13.57395922 8.5004908 15.04058989 12.46620513 17.0625 17.4609375 C17.37324463 18.25150543 17.68398926 19.04207336 18.00415039 19.8565979 C18.99326835 22.36661199 19.99637753 24.87075506 21 27.375 C21.67541217 29.08166231 22.34990161 30.78869009 23.0234375 32.49609375 C24.67163697 36.66837023 26.33240231 40.83544086 28 45 C35.12613761 31.40690582 35.12613761 31.40690582 34.56298828 16.68725586 C32.80049288 12.28396632 30.74057604 8.21701886 28.26953125 4.15625 C27 2 27 2 27 0 C33.6 0 40.2 0 47 0 C45.04783565 1.95216435 43.46800047 2.84826645 41 4 C41.57494378 9.44176523 42.93811318 14.04408786 44.94140625 19.12109375 C45.22853989 19.86585464 45.51567352 20.61061554 45.81150818 21.37794495 C46.7216153 23.73386857 47.64186394 26.08567362 48.5625 28.4375 C49.18492166 30.0433576 49.80667327 31.64947509 50.42773438 33.25585938 C51.94409144 37.17362056 53.4695507 41.08772354 55 45 C58.5598672 36.53931184 62.0253131 28.046122 65.375 19.5 C65.83777344 18.34757813 66.30054688 17.19515625 66.77734375 16.0078125 C67.20917969 14.90179687 67.64101563 13.79578125 68.0859375 12.65625 C68.4782959 11.66431641 68.8706543 10.67238281 69.27490234 9.65039062 C70.03086065 6.88719758 70.13170256 5.60741907 69 3 C67.0162233 1.71563266 67.0162233 1.71563266 65 1 C65 0.67 65 0.34 65 0 C69.95 0 74.9 0 80 0 C80 0.66 80 1.32 80 2 C79.38141113 2.25007813 78.76282227 2.50015625 78.12548828 2.7578125 C75.59348986 4.2375745 75.10376288 5.19986982 73.9921875 7.875 C73.65050537 8.68324219 73.30882324 9.49148438 72.95678711 10.32421875 C72.59979736 11.20722656 72.24280762 12.09023438 71.875 13 C71.49029541 13.91394531 71.10559082 14.82789063 70.70922852 15.76953125 C68.4807373 21.12975001 66.42607666 26.53373756 64.47265625 32 C63.8377124 33.74603516 63.8377124 33.74603516 63.18994141 35.52734375 C62.36940201 37.80246117 61.57252702 40.08628516 60.80224609 42.37890625 C58.52616643 48.68040919 56.65391868 52.23009294 50.57641602 55.328125 C50.05619873 55.54984375 49.53598145 55.7715625 49 56 C48.70230713 55.21761963 48.40461426 54.43523926 48.09790039 53.62915039 C46.99489901 50.73412178 45.88950786 47.84002071 44.7824707 44.9465332 C44.06731185 43.07509174 43.3549353 41.20258783 42.64257812 39.33007812 C42.19462891 38.16025391 41.74667969 36.99042969 41.28515625 35.78515625 C40.87144775 34.70113525 40.45773926 33.61711426 40.03149414 32.50024414 C39.22885633 30.10085971 39.22885633 30.10085971 38 29 C37.79431396 29.60473145 37.58862793 30.20946289 37.37670898 30.83251953 C36.41937264 33.60499955 35.42886498 36.36451408 34.4375 39.125 C34.11458984 40.07632813 33.79167969 41.02765625 33.45898438 42.0078125 C31.21686546 48.15762437 28.76261831 52.58703936 23 56 C22.34 56 21.68 56 21 56 C20.64550781 54.93910156 20.29101562 53.87820313 19.92578125 52.78515625 C15.47535824 39.68848477 10.46465736 26.83695698 5.35668945 13.98657227 C5.07701828 13.28287506 4.79734711 12.57917786 4.50920105 11.85415649 C3.97933035 10.52242162 3.44846703 9.19108111 2.91645813 7.86019897 C1.87798359 5.25527236 0.88710488 2.66131463 0 0 Z " fill="#161715" transform="translate(487,498)"/>
<path d="M0 0 C1.63475825 0.96953195 3.22326067 2.01602794 4.8046875 3.0703125 C4.17035812 6.23483212 3.07285822 8.58719029 1.3671875 11.3203125 C0.93535156 12.02671875 0.50351562 12.733125 0.05859375 13.4609375 C-0.56208984 14.25757813 -0.56208984 14.25757813 -1.1953125 15.0703125 C-1.8553125 15.0703125 -2.5153125 15.0703125 -3.1953125 15.0703125 C-3.39447266 14.14798828 -3.39447266 14.14798828 -3.59765625 13.20703125 C-3.77425781 12.39878906 -3.95085938 11.59054687 -4.1328125 10.7578125 C-4.30683594 9.95730469 -4.48085938 9.15679687 -4.66015625 8.33203125 C-5.19417409 5.9249115 -5.19417409 5.9249115 -6.1953125 3.0703125 C-11.63323824 0.10417118 -18.25719289 -0.59978364 -24.1953125 1.0703125 C-25.38886119 4.80015216 -25.60497246 8.17854289 -25.1953125 12.0703125 C-21.38193391 16.90606461 -17.42689779 18.40401238 -11.7578125 20.1328125 C-5.42713665 22.10665641 0.28070268 24.04153072 4.6796875 29.3203125 C6.71657842 34.2993792 6.41355271 38.40394456 4.6171875 43.3203125 C1.19313802 48.51542206 -3.09263379 51.19828565 -9.125 52.48046875 C-18.1912633 53.88396503 -26.28252827 52.32847551 -33.83203125 47.09375 C-34.28191406 46.75601563 -34.73179687 46.41828125 -35.1953125 46.0703125 C-33.67640719 41.51359658 -31.24128988 37.75307958 -28.1953125 34.0703125 C-27.8653125 34.0703125 -27.5353125 34.0703125 -27.1953125 34.0703125 C-27.12054687 34.66199219 -27.04578125 35.25367188 -26.96875 35.86328125 C-26.25583959 40.14773303 -25.67388931 43.1967392 -22.2578125 46.0703125 C-17.37933535 49.25625676 -12.90875986 49.94083775 -7.1953125 49.0703125 C-3.98518203 47.1939008 -3.98518203 47.1939008 -2.1953125 44.0703125 C-1.36197917 40.5703125 -1.36197917 40.5703125 -2.1953125 37.0703125 C-5.81262317 32.61823783 -9.05594373 31.12958038 -14.5078125 29.5703125 C-21.40027361 27.46140017 -27.25985216 25.28097225 -32.1953125 19.8828125 C-34.17339071 14.31946755 -34.06719007 9.11732941 -31.7578125 3.6953125 C-23.32451593 -4.94367423 -10.43840283 -5.31767691 0 0 Z " fill="#161715" transform="translate(657.1953125,499.9296875)"/>
<path d="M0 0 C0.99 0.66 1.98 1.32 3 2 C2.54300722 7.02692063 0.00758252 10.14896261 -3 14 C-4.3008304 11.49840308 -5.2550045 9.20665268 -6.125 6.5 C-8.25820773 2.51801223 -9.75295435 1.3280712 -13.8046875 -0.40625 C-17.63856553 -1.44317075 -20.1540615 -1.04296637 -24 0 C-26.64265627 2.22974122 -26.93856891 3.51878979 -27.375 6.9375 C-26.94332248 10.46286643 -26.09617552 12.15029733 -24 15 C-21.65372239 16.31105303 -21.65372239 16.31105303 -18.9375 17.0625 C-17.47570312 17.54589844 -17.47570312 17.54589844 -15.984375 18.0390625 C-14.99953125 18.35617187 -14.0146875 18.67328125 -13 19 C-6.75650194 21.1941436 -1.724077 23.275923 3 28 C4.63764716 32.91294148 4.85174 37.91796889 2.875 42.75 C-2.48644705 49.18373646 -6.32343704 50.85460745 -14.68359375 51.84375 C-23.12810883 52.24160701 -29.23700808 49.94945218 -36 45 C-35.55166054 40.0682659 -33.13973905 36.6807076 -30 33 C-29.67 33 -29.34 33 -29 33 C-28.7525 34.216875 -28.505 35.43375 -28.25 36.6875 C-27.03147821 41.50193923 -25.16819428 44.69908343 -20.8125 47.3125 C-16.79335309 48.29495813 -13.10157404 48.70461037 -9 48 C-5.93343346 45.9973443 -4.39501999 44.64863713 -3.52734375 41.02734375 C-3.27194233 38.61970617 -3.27194233 38.61970617 -4 35 C-7.63095859 31.34168955 -11.59072374 29.90136103 -16.4375 28.5 C-23.92409996 26.32235307 -29.40531704 23.46659083 -34 17 C-35.59781534 13.80436932 -35.36841911 10.4765367 -35 7 C-32.82835341 1.97092369 -29.30587888 -0.87518103 -24.4375 -3.25 C-15.55216266 -5.18861906 -7.89560108 -4.59319469 0 0 Z " fill="#161715" transform="translate(249,501)"/>
<path d="M0 0 C13.53 0 27.06 0 41 0 C42.52475697 4.57427092 43.4351418 8.29284832 44 13 C40.18578022 11.72859341 39.07466832 9.80537192 36.6953125 6.69140625 C32.52111561 2.52682732 27.23927254 2.61399296 21.6875 2.375 C19.150625 2.25125 16.61375 2.1275 14 2 C14 9.92 14 17.84 14 26 C24.45507127 25.67171511 24.45507127 25.67171511 34 22 C34.99 20.68 35.98 19.36 37 18 C37 23.61 37 29.22 37 35 C36.175 34.030625 35.35 33.06125 34.5 32.0625 C28.81285764 27.03747816 21.16698997 28.11846264 14 28 C14 35.59 14 43.18 14 51 C17.01125 50.9175 20.0225 50.835 23.125 50.75 C24.06230957 50.73420898 24.99961914 50.71841797 25.96533203 50.70214844 C31.40872866 50.48186189 34.7246511 49.66274235 39 46 C40.87548429 43.92749732 40.87548429 43.92749732 42.3125 41.75 C43.19038039 40.48732689 44.08111886 39.23315644 45 38 C45.33 38 45.66 38 46 38 C45.48517081 43.852795 44.54642808 49.3297637 43 55 C42.42320496 54.83923477 41.84640991 54.67846954 41.25213623 54.51283264 C39.08683776 54.01977378 37.18076513 53.84501739 34.96582031 53.79467773 C33.79505951 53.7647599 33.79505951 53.7647599 32.60064697 53.73423767 C31.76821472 53.71752518 30.93578247 53.70081268 30.078125 53.68359375 C28.78814606 53.6524221 28.78814606 53.6524221 27.47210693 53.62062073 C24.73148402 53.55536261 21.99076725 53.49635083 19.25 53.4375 C17.3893133 53.39429219 15.52863602 53.35067718 13.66796875 53.30664062 C9.11207477 53.19970558 4.5560866 53.09837149 0 53 C1.375 51.5 1.375 51.5 3 50 C3.66 50 4.32 50 5 50 C5.12661746 43.50403621 5.21427346 37.00838964 5.2746582 30.51147461 C5.2998263 28.30074167 5.3339638 26.09009212 5.37719727 23.87963867 C5.43774679 20.70470633 5.4661867 17.53087239 5.48828125 14.35546875 C5.51408768 13.36475876 5.5398941 12.37404877 5.56648254 11.35331726 C5.56752917 8.80162434 5.54361746 6.49336488 5 4 C2.6430815 1.82609222 2.6430815 1.82609222 0 1 C0 0.67 0 0.34 0 0 Z " fill="#171815" transform="translate(681,498)"/>
<path d="M0 0 C0.2461203 0.61974197 0.4922406 1.23948395 0.74581909 1.87800598 C3.30473854 8.3195015 5.86848372 14.75906079 8.43505859 21.19750977 C9.39268285 23.601637 10.34906941 26.00625762 11.30419922 28.41137695 C12.67611946 31.86539631 14.05245951 35.31762543 15.4296875 38.76953125 C16.07041702 40.38683891 16.07041702 40.38683891 16.72409058 42.03681946 C17.12435455 43.03763046 17.52461853 44.03844147 17.93701172 45.06958008 C18.28786835 45.95116287 18.63872498 46.83274567 19.00021362 47.74104309 C20.52866806 51.19449354 21.83207744 52.88805163 25 55 C17.74 55 10.48 55 3 55 C4.32 54.34 5.64 53.68 7 53 C7.33 52.67 7.66 52.34 8 52 C7.505 48.04 7.505 48.04 7 44 C-2.57 43.67 -12.14 43.34 -22 43 C-22.33 45.97 -22.66 48.94 -23 52 C-21.68 52.99 -20.36 53.98 -19 55 C-23.62 55 -28.24 55 -33 55 C-32.30777344 54.29746094 -31.61554688 53.59492187 -30.90234375 52.87109375 C-27.00808345 48.18728965 -24.82118497 42.54400409 -22.409729 37.00756836 C-21.55343079 35.04167891 -20.68391618 33.08205853 -19.81201172 31.12304688 C-16.87340074 24.48730372 -14.11938127 17.81636447 -11.625 11 C-9.54621024 5.60144598 -6.64046076 0 0 0 Z M-7 9 C-10.57897508 16.56032014 -14.11679888 24.1345197 -17.4375 31.8125 C-17.93121094 32.95332031 -18.42492187 34.09414063 -18.93359375 35.26953125 C-20.12126544 37.82193823 -20.12126544 37.82193823 -20 40 C-11.42 40 -2.84 40 6 40 C4.37541159 35.77067481 2.75034605 31.54153402 1.125 27.3125 C0.66480469 26.11431641 0.20460938 24.91613281 -0.26953125 23.68164062 C-0.71425781 22.52470703 -1.15898437 21.36777344 -1.6171875 20.17578125 C-2.02565918 19.11270752 -2.43413086 18.04963379 -2.85498047 16.9543457 C-3.8855095 14.29540503 -4.93503452 11.64530583 -6 9 C-6.33 9 -6.66 9 -7 9 Z " fill="#161715" transform="translate(372,496)"/>
<path d="M0 0 C16.17 0 32.34 0 49 0 C46.75 11.25 46.75 11.25 45 16 C44.34 16 43.68 16 43 16 C42.91363281 15.31292969 42.82726562 14.62585938 42.73828125 13.91796875 C41.99950031 8.3580889 41.99950031 8.3580889 38.875 3.9375 C35.22260199 2.64593569 35.22260199 2.64593569 28 2 C28.33 17.84 28.66 33.68 29 50 C30.98 50.66 32.96 51.32 35 52 C35 52.33 35 52.66 35 53 C27.41 53 19.82 53 12 53 C14 52 16 51 18 50 C18.33 34.16 18.66 18.32 19 2 C7.9723798 3.75835846 7.9723798 3.75835846 4.4375 7.3125 C2.90020892 10.18656594 1.37484267 13.04408827 0 16 C-0.66 16 -1.32 16 -2 16 C-1.34 10.72 -0.68 5.44 0 0 Z " fill="#161715" transform="translate(273,498)"/>
<path d="M0 0 C4.7292982 -1.19631656 9.43434401 -2.06161026 14 0 C19.33007451 5.25681895 22.58754639 12.42195692 26 19 C28.21554469 23.73414128 28.21554469 23.73414128 32 27 C32.22429687 26.34257813 32.44859375 25.68515625 32.6796875 25.0078125 C34.76707561 20.25252006 37.70585878 16.04476137 40.54296875 11.70703125 C40.98511719 11.01738281 41.42726563 10.32773437 41.8828125 9.6171875 C42.28902832 8.99440918 42.69524414 8.37163086 43.11376953 7.72998047 C44.22796706 5.87895469 44.22796706 5.87895469 44 3 C41.525 2.01 41.525 2.01 39 1 C39 0.67 39 0.34 39 0 C44.94 0 50.88 0 57 0 C56 2 56 2 53.1875 3.3125 C49.58348032 5.22051042 48.44190265 6.75128242 46 10 C45.49299561 10.64106689 44.98599121 11.28213379 44.46362305 11.94262695 C34.32946019 24.96768544 31.07001075 34.57034794 33 51 C35.97 51.495 35.97 51.495 39 52 C39 52.33 39 52.66 39 53 C31.74 53 24.48 53 17 53 C21 51 21 51 23 51 C25.66619419 34.2523506 19.47465747 23.7719832 9.80712891 10.34472656 C7.7036272 7.6154601 5.55085504 5.31072126 3 3 C2 2 1 1 0 0 Z " fill="#161715" transform="translate(413,498)"/>
<path d="M0 0 C6.6 0 13.2 0 20 0 C19 2 19 2 15 4 C15 19.51 15 35.02 15 51 C16.65 51.33 18.3 51.66 20 52 C20 52.33 20 52.66 20 53 C13.4 53 6.8 53 0 53 C3 51 3 51 5 51 C5.02529705 44.48552273 5.04284444 37.97105807 5.05493164 31.45654297 C5.05996909 29.23909024 5.06679922 27.02164084 5.07543945 24.80419922 C5.08753072 21.62206195 5.0932341 18.43996849 5.09765625 15.2578125 C5.10281754 14.26194122 5.10797882 13.26606995 5.11329651 12.24002075 C5.11337204 11.31921722 5.11344757 10.3984137 5.11352539 9.44970703 C5.11685631 8.23059128 5.11685631 8.23059128 5.12025452 6.98684692 C5.12584658 4.92472641 5.12584658 4.92472641 4 3 C1.98330173 1.86649466 1.98330173 1.86649466 0 1 C0 0.67 0 0.34 0 0 Z " fill="#171816" transform="translate(584,498)"/>
<path d="M0 0 C3.2830753 1.80904149 4.52119876 3.13359775 6.3125 6.375 C7.53226902 11.03229989 7.59373187 13.8353721 5.375 18.1875 C2.67940663 21.37965004 0.96918621 22.70238143 -3 24 C-7.8301229 24 -10.66783501 23.60896787 -14.4375 20.5625 C-17.68424862 17.31575138 -17.94694226 16.80913055 -18.25 12.1875 C-18.19419208 8.33675371 -17.45450556 6.06813195 -15 3 C-10.49086853 -1.10102024 -5.81338544 -0.77626808 0 0 Z M-14 7 C-15.24721924 10.66370652 -15.36297705 12.23947666 -13.6875 15.75 C-11.257703 19.01864674 -11.257703 19.01864674 -7.6875 20.75 C-4.44283118 21.05182966 -2.84250827 20.57085983 0 19 C2.62186654 16.55895184 2.97851434 15.14771393 3.5 11.5625 C3.26138637 7.8982911 3.26138637 7.8982911 0.9375 5.0625 C-4.61493458 1.1639821 -9.53106201 2.00530459 -14 7 Z " fill="#161615" transform="translate(445,577)"/>
<path d="M0 0 C1.32 0 2.64 0 4 0 C4 3.3 4 6.6 4 10 C8.29 10 12.58 10 17 10 C17 6.7 17 3.4 17 0 C17.99 0 18.98 0 20 0 C20 7.59 20 15.18 20 23 C19.01 23 18.02 23 17 23 C17 19.7 17 16.4 17 13 C12.71 13 8.42 13 4 13 C4 16.3 4 19.6 4 23 C2.68 23 1.36 23 0 23 C0 15.41 0 7.82 0 0 Z " fill="#171816" transform="translate(389,577)"/>
<path d="M0 0 C5.61 0 11.22 0 17 0 C17 0.99 17 1.98 17 3 C12.38 3 7.76 3 3 3 C3 5.31 3 7.62 3 10 C6.96 10 10.92 10 15 10 C15 10.99 15 11.98 15 13 C11.04 13 7.08 13 3 13 C3 15.31 3 17.62 3 20 C7.62 20 12.24 20 17 20 C17 20.99 17 21.98 17 23 C11.39 23 5.78 23 0 23 C0 15.41 0 7.82 0 0 Z " fill="#161815" transform="translate(501,577)"/>
<path d="M0 0 C6.27 0 12.54 0 19 0 C19 0.99 19 1.98 19 3 C16.36 3 13.72 3 11 3 C11 9.6 11 16.2 11 23 C10.01 23 9.02 23 8 23 C8 16.4 8 9.8 8 3 C5.36 3 2.72 3 0 3 C0 2.01 0 1.02 0 0 Z " fill="#171816" transform="translate(466,577)"/>
<path d="M0 0 C0.99 0 1.98 0 3 0 C3 6.6 3 13.2 3 20 C7.29 20 11.58 20 16 20 C16 20.99 16 21.98 16 23 C10.72 23 5.44 23 0 23 C0 15.41 0 7.82 0 0 Z " fill="#161815" transform="translate(536,577)"/>
</svg>
